<svg preserveAspectRatio="none" width="100%" height="100%" overflow="visible" style="display: block;" viewBox="0 0 21.6051 20.6326" fill="none" xmlns="http://www.w3.org/2000/svg">
<g id="Container">
<path id="Icon" d="M14.225 14.0025L15.5 9.3775L11.525 6.6525L10.25 11.2775L14.225 14.0025V14.0025M2 17.9275L1.15 17.5775C0.633333 17.3608 0.2875 16.9872 0.1125 16.4566C-0.0625 15.926 -0.0333333 15.3997 0.2 14.8775L2 10.9775V17.9275V17.9275M6.01231 20.1275C5.4541 20.1275 4.97917 19.93 4.5875 19.5349C4.19583 19.1398 4 18.6707 4 18.1275V12.1275L6.65068 19.4775C6.70023 19.5942 6.75 19.7067 6.8 19.815C6.85 19.9233 6.91667 20.0275 7 20.1275H6.01231V20.1275M12.5 20.4275C11.6667 20.7275 10.8625 20.6983 10.0875 20.34C9.3125 19.9817 8.775 19.3858 8.475 18.5525L4.175 6.8025C3.875 5.96917 3.90833 5.165 4.275 4.39C4.64167 3.615 5.24167 3.0775 6.075 2.7775L13.1 0.2025C13.9333 -0.0975 14.7375 -0.0641667 15.5125 0.3025C16.2875 0.669167 16.825 1.26917 17.125 2.1025L21.4 13.8275C21.7 14.6608 21.6708 15.465 21.3125 16.24C20.9542 17.015 20.3583 17.5525 19.525 17.8525L12.5 20.4275V20.4275M11.425 17.4525L18.4 14.8775V14.8775V14.8775L14.15 3.2025V3.2025V3.2025L7.175 5.7775V5.7775V5.7775L11.425 17.4525V17.4525V17.4525V17.4525M12.8 10.3275V10.3275V10.3275V10.3275V10.3275V10.3275V10.3275V10.3275V10.3275V10.3275V10.3275V10.3275V10.3275V10.3275" fill="var(--fill-0, #0A0A0A)"/>
</g>
</svg>
