<svg preserveAspectRatio="none" width="100%" height="100%" overflow="visible" style="display: block;" viewBox="0 0 9.996 9.498" fill="none" xmlns="http://www.w3.org/2000/svg">
<g id="Container">
<path id="Icon" d="M6.598 6.398L7.173 4.323L5.398 3.098L4.823 5.173L6.598 6.398V6.398M0.998 8.4105L0.5855 8.2105C0.327167 8.10217 0.152167 7.91675 0.0605 7.65425C-0.0311667 7.39175 -0.0186667 7.13133 0.098 6.873L0.998 4.923V8.4105V8.4105M2.998 9.498C2.723 9.498 2.48758 9.398 2.29175 9.198C2.09592 8.998 1.998 8.7605 1.998 8.4855V5.498L3.3355 9.173C3.3605 9.23133 3.38133 9.28758 3.398 9.34175C3.41467 9.39592 3.44383 9.448 3.4855 9.498H2.998V9.498M5.573 9.4355C5.31467 9.52717 5.05633 9.51467 4.798 9.398C4.53967 9.28133 4.36467 9.09383 4.273 8.8355L2.0605 2.723C1.96883 2.46467 1.98133 2.20842 2.098 1.95425C2.21467 1.70008 2.40217 1.52717 2.6605 1.4355L6.423 0.0605C6.68133 -0.0311667 6.93758 -0.0186667 7.19175 0.098C7.44592 0.214667 7.61883 0.402167 7.7105 0.6605L9.9355 6.773C10.0272 7.03133 10.0147 7.28758 9.898 7.54175C9.78133 7.79592 9.59383 7.96883 9.3355 8.0605L5.573 9.4355V9.4355M5.223 8.498L8.998 7.123V7.123V7.123L6.7605 0.998V0.998V0.998L2.998 2.373V2.373V2.373L5.223 8.498V8.498V8.498V8.498M5.998 4.748V4.748V4.748V4.748V4.748V4.748V4.748V4.748V4.748V4.748V4.748V4.748V4.748V4.748" fill="var(--fill-0, white)"/>
</g>
</svg>
