<svg width="32" height="32" viewBox="0 0 32 32" fill="none" xmlns="http://www.w3.org/2000/svg">
<rect width="32" height="32" rx="16" fill="white"/>
<path d="M16.0104 2.00088C17.1062 1.97648 18.4015 2.46145 19.1979 3.22354C20.3765 4.35142 20.5925 5.90091 20.6325 7.45498C19.1406 7.69727 17.7507 8.74828 16.9772 10.0302C16.1323 11.4306 15.9896 12.9894 16.3747 14.5605C15.3133 14.0619 14.4363 13.9556 13.3132 14.3368C11.9999 14.7828 10.8923 15.853 10.2868 17.0868C10.1999 17.2638 9.93266 17.793 9.98895 17.9599C10.1272 17.9327 10.4086 17.4666 10.5085 17.3329C10.7526 17.0097 11.0206 16.7051 11.3093 16.4208C11.9347 15.8038 12.7302 15.265 13.5466 14.9706C14.7663 14.5246 16.49 14.9508 16.8786 16.329C17.3388 17.9628 16.0818 19.9931 15.3522 21.4208C15.9505 21.4535 16.5258 21.3978 17.1354 21.496C18.0666 21.6459 18.8767 22.4645 18.7536 23.4501C18.7406 23.5546 18.6908 23.6042 18.6052 23.6562C18.488 23.677 18.4708 23.6627 18.3532 23.622C18.2599 23.4697 18.2495 23.1473 18.1862 22.997C18.0309 22.629 17.6149 22.4082 17.28 22.247C17.5141 22.6216 17.8845 22.9239 17.9352 23.4091C17.9596 23.642 17.8976 24.1051 17.6013 24.1103C17.0564 23.8508 17.8133 23.1552 16.4147 22.5937C16.5751 22.797 17.4854 23.8725 16.6989 24.1405C16.4369 24.2297 16.2287 23.4294 15.8806 23.33C15.2575 23.1522 13.8282 23.5524 13.3718 23.0712C13.2238 22.9158 13.1462 22.7064 13.1579 22.4921C13.1759 22.1618 13.4034 21.5854 13.5016 21.245C13.8241 20.1283 14.3237 18.8053 14.3239 17.6435C14.1332 17.9425 13.9278 18.4867 13.7741 18.8251C13.2337 20.0139 12.5332 21.0705 11.3044 21.6347C11.0625 21.7418 10.7606 21.8681 10.5016 21.9179C9.83551 22.0461 9.23381 21.9444 9.04852 22.7831C8.7793 24.0025 9.07955 25.5516 9.71259 26.622C10.3848 27.7814 11.4919 28.625 12.7878 28.9657C14.4543 29.3843 16.2189 29.1199 17.6891 28.2304C19.24 27.3067 20.3929 25.7735 20.8542 24.0478C21.5453 21.4616 20.4974 20.0807 18.9763 18.1708C18.6545 17.7669 18.2304 17.0894 17.9577 16.6317C17.1675 15.2894 16.6359 13.6415 16.9128 12.0751C17.1306 10.7825 17.8545 9.63006 18.9235 8.87197C22.3982 6.45766 27.544 8.99949 26.6218 13.495C26.4765 14.2033 26.1631 15.276 25.2126 15.0497C24.9557 14.9892 24.7344 14.8276 24.5983 14.6015C24.3117 14.1151 24.6639 13.6274 24.779 13.1522C24.8339 12.929 24.8426 12.6997 24.8444 12.4706C24.8636 10.0317 21.975 9.13701 20.1247 10.2743C18.8243 11.0737 18.4894 12.7102 18.8786 14.1034C19.4053 15.9883 20.8777 17.3617 21.8913 18.9765C22.2665 19.5741 22.5781 20.2453 22.7438 20.9335C23.0008 22.0079 22.9762 23.1833 22.7184 24.2548C22.1517 26.5636 20.6901 28.553 18.6569 29.7841C16.8209 30.899 14.4547 31.2904 12.3649 30.7763C10.6001 30.3502 9.07806 29.2372 8.13641 27.6845C7.66815 26.9093 7.34223 26.056 7.1745 25.1659C6.97016 24.0951 7.02013 22.5719 7.01239 21.4433C7.00475 20.331 6.96947 18.9149 7.06805 17.8271C7.12204 17.2703 7.21979 16.7182 7.36005 16.1767C7.9817 13.7134 9.57128 11.3895 11.7175 10.0136C12.0745 9.78468 12.4489 9.59279 12.8132 9.37588C12.6158 9.27652 12.4324 9.18496 12.2604 9.05264C11.1871 8.22682 10.9563 6.38895 12.1081 5.52041C12.9342 4.89728 12.0429 4.24849 12.7184 3.47256C13.5543 2.51242 14.4791 2.16195 15.696 2.0165C15.8007 2.00893 15.9056 2.0039 16.0104 2.00088ZM14.1706 3.91885C13.5639 4.01118 13.391 4.22459 12.8513 4.46572C12.9352 4.79606 13.0365 5.18499 12.8347 5.46572C12.4783 5.96097 11.9554 6.16574 11.9313 6.86709C11.9262 7.01521 11.8459 7.39897 12.0388 7.47744C12.4535 7.63125 12.9666 7.69882 13.4069 7.75576C12.8861 7.93759 12.5855 7.88358 12.0368 7.84854C12.174 8.22329 12.3198 8.41543 12.6589 8.63955C13.6964 9.15626 15.3134 8.4188 14.6393 7.2294C14.5637 7.09591 14.5247 6.98244 14.5837 6.83193C14.7417 6.67087 14.9996 6.55499 15.1882 6.42373C16.3911 5.58598 15.7733 3.87548 14.3151 3.91299C14.267 3.9143 14.2187 3.91611 14.1706 3.91885ZM17.6384 4.01162C16.5974 4.26296 16.6202 5.24259 16.8249 6.10049C16.9835 6.76465 17.352 6.97477 18.0075 6.78506C18.767 6.38744 19.2283 5.40057 18.8024 4.61318C18.656 4.33919 18.404 4.13719 18.1052 4.05264C17.9436 4.0054 17.8043 4.00316 17.6384 4.01162Z" fill="#111111"/>
<path d="M13.9279 4.89619C14.1977 4.87965 14.6098 4.98451 14.602 5.32089C14.5459 5.49006 14.4226 5.5445 14.272 5.62304C13.6762 5.72384 13.3 5.2218 13.9279 4.89619Z" fill="#111111"/>
<path d="M12.4364 21.8982C12.5859 21.9096 12.5492 21.9427 12.5342 22.0729C12.4754 22.5831 12.4687 22.8211 12.6867 23.294L9.9822 23.3084L9.62671 23.3026C9.73497 22.6065 9.79083 22.6753 10.4824 22.607C11.1035 22.5456 11.895 21.952 12.4364 21.8982Z" fill="#111111"/>
<path d="M19.0613 21.9047C19.4822 21.898 19.9032 21.8981 20.3241 21.9052C20.3786 22.4909 20.3635 22.7019 20.3112 23.2907C20.0222 23.2952 19.7204 23.2892 19.4305 23.2876C19.3666 22.5575 19.3464 22.562 19.03 21.9485L19.0613 21.9047Z" fill="#111111"/>
</svg>
