<svg width="46" height="50" viewBox="0 0 46 50" fill="none" xmlns="http://www.w3.org/2000/svg">
<path d="M22.5738 0.00152097C24.4629 -0.0406184 26.6957 0.79609 28.0689 2.10992C30.1014 4.05472 30.4736 6.72701 30.5426 9.40679C27.9704 9.82462 25.5744 11.6352 24.2408 13.8453C22.784 16.2597 22.5388 18.9472 23.2027 21.6558C21.3726 20.7962 19.8608 20.6128 17.9244 21.2701C15.6601 22.0387 13.7498 23.884 12.7057 26.0113C12.5559 26.3162 12.0949 27.2294 12.192 27.5171C12.4302 27.4713 12.9171 26.6677 13.0895 26.4371C13.5103 25.8799 13.9708 25.3538 14.4684 24.8638C15.5466 23.8 16.9182 22.8704 18.3258 22.3628C20.429 21.5937 23.4023 22.3297 24.0719 24.7066C24.8652 27.5233 22.6969 31.0224 21.4391 33.4839C22.4707 33.5404 23.463 33.4445 24.5143 33.6138C26.1199 33.8724 27.5158 35.2844 27.3033 36.9839C27.2808 37.1639 27.196 37.25 27.0484 37.3394C26.8462 37.3754 26.8167 37.35 26.6139 37.2798C26.4527 37.0172 26.4341 36.4609 26.3248 36.2017C26.057 35.5675 25.3417 35.1877 24.7643 34.9097C25.168 35.5556 25.8057 36.0762 25.8932 36.9127C25.9351 37.3144 25.8274 38.1124 25.316 38.1207C24.3772 37.6732 25.6831 36.4754 23.2721 35.5074C23.5485 35.858 25.1173 37.7113 23.7613 38.1734C23.3096 38.3272 22.9513 36.9466 22.3512 36.775C21.2771 36.4682 18.811 37.1605 18.024 36.3306C17.7687 36.0625 17.6356 35.7003 17.6559 35.3306C17.6869 34.7611 18.0792 33.769 18.2486 33.1822C18.8046 31.2567 19.6662 28.9755 19.6666 26.9722C19.3377 27.488 18.9834 28.4269 18.7184 29.0103C17.7867 31.0597 16.5789 32.8804 14.4605 33.8531C14.0435 34.0378 13.5232 34.2555 13.0768 34.3414C11.9281 34.5625 10.8903 34.3872 10.5709 35.8336C10.1067 37.9361 10.6247 40.6072 11.7164 42.4527C12.8754 44.4517 14.784 45.9062 17.0182 46.4937C19.8912 47.2153 22.9336 46.7586 25.4684 45.2252C28.1422 43.6326 30.1292 40.9886 30.9244 38.0132C32.116 33.5544 30.3108 31.1733 27.6881 27.8804C27.1333 27.184 26.4013 26.0161 25.9313 25.2271C24.5689 22.9129 23.6532 20.0722 24.1305 17.3716C24.506 15.1429 25.7531 13.1553 27.5963 11.8482C33.5871 7.68555 42.4596 12.0681 40.8697 19.8189C40.6192 21.0401 40.079 22.8908 38.44 22.5005C37.997 22.3963 37.6151 22.1172 37.3805 21.7271C36.8863 20.8884 37.4947 20.0475 37.693 19.2281C37.7877 18.8431 37.8022 18.4483 37.8053 18.0533C37.8384 13.8483 32.8578 12.3053 29.6676 14.2662C27.4257 15.6443 26.8483 18.4658 27.5191 20.8677C28.4271 24.1176 30.9659 26.4861 32.7135 29.2701C33.3604 30.3004 33.8964 31.4575 34.1822 32.6441C34.6254 34.4964 34.5835 36.5223 34.1393 38.3697C33.1622 42.3505 30.6436 45.7802 27.1383 47.9029C23.9727 49.8255 19.8929 50.5012 16.2897 49.6148C13.2468 48.8802 10.6222 46.9619 8.99864 44.2847C8.19111 42.948 7.62965 41.4768 7.34043 39.942C6.98802 38.0957 7.07351 35.47 7.06016 33.524C7.04699 31.606 6.98675 29.1635 7.15684 27.2877C7.24992 26.3277 7.41797 25.3765 7.65977 24.4429C8.7316 20.1958 11.473 16.1891 15.1734 13.817C15.789 13.4223 16.434 13.0914 17.0621 12.7173C16.7218 12.546 16.4055 12.3879 16.109 12.1597C14.2585 10.7359 13.8606 7.56832 15.8463 6.07086C17.2709 4.99646 15.7343 3.87746 16.899 2.53961C18.3401 0.884391 19.934 0.279639 22.0318 0.0288647C22.2123 0.0158008 22.3931 0.00673061 22.5738 0.00152097ZM19.402 3.30914C18.3561 3.46831 18.0588 3.83587 17.1285 4.25152C17.2732 4.82101 17.4471 5.49114 17.0992 5.97515C16.4849 6.82937 15.5831 7.18271 15.5416 8.39215C15.5328 8.6475 15.3938 9.30846 15.7262 9.4439C16.4413 9.70926 17.3261 9.82617 18.0855 9.92437C17.1875 10.2379 16.6694 10.1449 15.7232 10.0845C15.9599 10.7306 16.2119 11.0614 16.7965 11.4478C18.5853 12.3384 21.3726 11.0677 20.2105 9.01715C20.08 8.78685 20.012 8.59029 20.1139 8.33062C20.3863 8.05303 20.8308 7.85469 21.1559 7.62847C23.2309 6.18436 22.1661 3.23496 19.652 3.29937C19.5688 3.30164 19.4851 3.30441 19.402 3.30914ZM25.3814 3.46929C23.5866 3.90253 23.6252 5.59073 23.9781 7.06988C24.2515 8.2154 24.8878 8.57872 26.0182 8.25152C27.3276 7.56597 28.1214 5.86486 27.3873 4.50738C27.1349 4.03473 26.7015 3.68443 26.1861 3.53863C25.9076 3.45719 25.6675 3.45471 25.3814 3.46929Z" fill="#0A0A0A"/>
<path d="M18.9836 4.99408C19.4487 4.96557 20.1592 5.14636 20.1458 5.72631C20.0492 6.01799 19.8366 6.11184 19.5768 6.24727C18.5496 6.42104 17.901 5.55547 18.9836 4.99408Z" fill="#0A0A0A"/>
<path d="M44.3648 25.1145C44.644 25.0835 45.1185 25.0665 45.3821 25.147C45.459 25.2016 45.529 25.2651 45.5545 25.3608C46.4075 28.5696 44.9469 32.0621 42.022 33.6715C41.5434 33.9349 41.088 34.1211 40.5832 34.3279C42.3888 34.3353 44.1944 34.3327 46 34.3202C45.9849 35.1219 45.986 35.9328 45.9808 36.7353C43.7074 36.6998 41.3882 36.7819 39.1163 36.7115C40.8513 37.5372 41.9656 38.312 42.8939 40.1026C43.7182 41.6929 43.9592 43.8788 43.4081 45.5959C43.2389 45.6117 43.0689 45.619 42.8989 45.6179C40.9863 45.6136 38.6941 44.8413 37.3749 43.4462C35.9117 41.8988 35.5149 40.2853 35.5251 38.2426C35.5942 38.1533 35.5509 38.19 35.6757 38.1571C37.3654 38.4663 39.7563 41.1715 40.8494 42.3546C40.1015 39.7538 38.2926 37.5492 35.5801 36.8815C35.664 36.1396 35.6334 35.0744 35.629 34.3074C36.8132 34.273 37.7353 34.1687 38.807 33.5853C41.01 32.386 42.1176 30.6138 42.8435 28.3239C42.6508 28.5224 42.4541 28.7563 42.2754 28.9684C40.9402 30.5527 39.5195 31.9673 37.6293 32.8732C37.5968 32.698 37.5645 32.511 37.5493 32.3339C37.4014 30.6185 37.9481 28.9155 39.0668 27.607C40.4125 26.0382 42.3471 25.2778 44.3648 25.1145Z" fill="#0A0A0A"/>
<path d="M8.85291e-05 34.3344L5.95201 34.3369C5.9522 35.1355 5.94822 35.9342 5.93989 36.7329C3.96687 36.7204 1.99376 36.7232 0.0208306 36.7413C-0.0112734 35.9799 0.00453952 35.1045 8.85291e-05 34.3344Z" fill="#0A0A0A"/>
<path d="M16.4121 34.3076C16.6699 34.3273 16.6067 34.3844 16.5808 34.6088C16.4794 35.4885 16.4678 35.8989 16.8437 36.7142L12.1808 36.7389L11.5679 36.729C11.7545 35.5288 11.8508 35.6474 13.0432 35.5297C14.1141 35.4239 15.4787 34.4004 16.4121 34.3076Z" fill="#0A0A0A"/>
<path d="M27.8343 34.3189C28.5599 34.3073 29.2858 34.3075 30.0115 34.3198C30.1054 35.3295 30.0793 35.6934 29.9891 36.7084C29.491 36.7162 28.9706 36.706 28.4706 36.7031C28.3605 35.4444 28.3258 35.4521 27.7803 34.3944L27.8343 34.3189Z" fill="#0A0A0A"/>
</svg>
