<svg width="31" height="29" viewBox="0 0 31 29" fill="none" xmlns="http://www.w3.org/2000/svg">
<path d="M17.334 0.0293579C18.0741 -0.0406764 18.8122 0.0220229 19.4834 0.139709C24.0527 0.941574 26.6778 5.30014 25.8467 9.79694C25.6928 10.6295 25.1857 11.9436 23.6973 12.1251C22.853 12.2277 21.7242 11.9227 21.2275 10.8487V10.8497C20.919 10.1975 20.9364 9.55237 20.9814 9.07135C21.0343 8.50734 21.0994 8.25238 21.0859 7.90826C21.061 7.27175 20.9301 6.76452 20.6426 6.30475L20.5586 6.17975C20.118 5.57013 19.3944 5.1714 18.5557 5.04205C17.6565 4.90353 16.7337 5.09384 16.0742 5.55084C15.4549 5.98264 15.0187 6.66379 14.877 7.44733L14.876 7.45221C14.6389 8.73268 15.0765 9.79269 15.9062 10.838C16.7874 11.9478 17.907 12.8201 19.0205 13.9024H19.0215C19.9992 14.8234 20.9951 15.8291 21.7891 17.0743C22.507 18.2003 23.1577 19.4126 23.6211 20.5997C24.0795 21.774 24.3826 22.9912 24.3359 24.1046C24.2879 25.2495 23.86 26.3451 22.8174 27.0733C22.5518 27.2587 22.2566 27.4099 21.9355 27.5323C21.8218 27.5883 21.7245 27.613 21.7021 27.6182C21.6956 27.6197 21.688 27.6199 21.6816 27.6212C20.8616 27.8819 19.8808 27.9614 18.7549 27.8799C17.1568 27.9382 16.2628 27.9359 15.835 27.879C15.7704 27.8704 15.6216 27.849 15.4609 27.7872C15.1167 27.7614 14.7722 27.7346 14.4277 27.712C13.4651 27.6253 12.0448 27.6534 11.0645 27.6465C7.26944 27.6201 3.69746 28.0701 0.0117188 29.0001L0 26.6924C3.58973 25.8375 7.26601 25.4192 10.9521 25.4464C9.04631 24.5535 7.91558 23.5896 7.07129 21.5118C6.63059 20.4268 6.34923 18.1279 6.82812 17.0206C8.04788 16.931 9.27107 17.1386 10.3965 17.627C12.2738 18.4271 13.6498 19.9271 14.1104 21.9717C14.2189 22.4536 14.3542 23.6746 14.1836 24.088L14.0811 24.128C12.5799 23.8233 10.3008 21.2642 9.30469 20.1221C9.67776 21.2485 10.0226 22.077 10.7568 23.0098C11.8857 24.4438 13.0318 25.0118 14.2969 25.2862C14.4285 25.2823 14.5741 25.2825 14.7178 25.2872C14.7786 25.2671 14.8356 25.2518 14.8799 25.2393C14.9964 25.2065 15.1352 25.1712 15.2783 25.1358C15.8697 24.9894 16.6929 24.7958 17.4785 24.5079C18.1091 24.2767 18.5942 24.0245 18.9014 23.7755L18.9238 23.3194C19.0388 20.921 17.6091 19.2457 15.6104 17.3741C14.6521 16.4768 13.5365 15.5091 12.5996 14.4717C11.6477 13.4176 10.7986 12.2088 10.3604 10.7422C8.79275 5.49534 12.0132 0.577093 17.3262 0.0303345L17.334 0.0293579ZM25 24.9473C26.0229 25.092 29.786 25.2976 31 25.4473C30.6245 26.2694 30.2497 26.9324 29.5 27.4473C29.0532 27.4107 23.947 27.5318 23.5 27.5001L25 24.9473ZM21.4414 26.6495C21.3476 26.6633 21.1451 26.6739 20.8652 26.6837C21.1415 26.6741 21.3423 26.6641 21.4375 26.6505C21.4386 26.6501 21.4403 26.6499 21.4414 26.6495ZM19.0488 15.3204C19.064 15.3355 19.0787 15.3511 19.0938 15.3663C19.0788 15.3513 19.0648 15.3353 19.0498 15.3204L18.3359 14.6309L19.0488 15.3204ZM23.1729 11.1329L23.3613 11.1446C23.2947 11.1442 23.2281 11.1393 23.1621 11.1309C23.1657 11.1314 23.1692 11.1324 23.1729 11.1329Z" fill="#242424"/>
<path d="M17.334 0.0293579C18.0741 -0.0406764 18.8122 0.0220229 19.4834 0.139709C24.0527 0.941574 26.6778 5.30014 25.8467 9.79694C25.6928 10.6295 25.1857 11.9436 23.6973 12.1251C22.853 12.2277 21.7242 11.9227 21.2275 10.8487V10.8497C20.919 10.1975 20.9364 9.55237 20.9814 9.07135C21.0343 8.50734 21.0994 8.25238 21.0859 7.90826C21.061 7.27175 20.9301 6.76452 20.6426 6.30475L20.5586 6.17975C20.118 5.57013 19.3944 5.1714 18.5557 5.04205C17.6565 4.90353 16.7337 5.09384 16.0742 5.55084C15.4549 5.98264 15.0187 6.66379 14.877 7.44733L14.876 7.45221C14.6389 8.73268 15.0765 9.79269 15.9062 10.838C16.7874 11.9478 17.907 12.8201 19.0205 13.9024H19.0215C19.9992 14.8234 20.9951 15.8291 21.7891 17.0743C22.507 18.2003 23.1577 19.4126 23.6211 20.5997C24.0795 21.774 24.3826 22.9912 24.3359 24.1046C24.2879 25.2495 23.86 26.3451 22.8174 27.0733C22.5518 27.2587 22.2566 27.4099 21.9355 27.5323C21.8218 27.5883 21.7245 27.613 21.7021 27.6182C21.6956 27.6197 21.688 27.6199 21.6816 27.6212C20.8616 27.8819 19.8808 27.9614 18.7549 27.8799C17.1568 27.9382 16.2628 27.9359 15.835 27.879C15.7704 27.8704 15.6216 27.849 15.4609 27.7872C15.1167 27.7614 14.7722 27.7346 14.4277 27.712C13.4651 27.6253 12.0448 27.6534 11.0645 27.6465C7.26944 27.6201 3.69746 28.0701 0.0117188 29.0001L0 26.6924C3.58973 25.8375 7.26601 25.4192 10.9521 25.4464C9.04631 24.5535 7.91558 23.5896 7.07129 21.5118C6.63059 20.4268 6.34923 18.1279 6.82812 17.0206C8.04788 16.931 9.27107 17.1386 10.3965 17.627C12.2738 18.4271 13.6498 19.9271 14.1104 21.9717C14.2189 22.4536 14.3542 23.6746 14.1836 24.088L14.0811 24.128C12.5799 23.8233 10.3008 21.2642 9.30469 20.1221C9.67776 21.2485 10.0226 22.077 10.7568 23.0098C11.8857 24.4438 13.0318 25.0118 14.2969 25.2862C14.4285 25.2823 14.5741 25.2825 14.7178 25.2872C14.7786 25.2671 14.8356 25.2518 14.8799 25.2393C14.9964 25.2065 15.1352 25.1712 15.2783 25.1358C15.8697 24.9894 16.6929 24.7958 17.4785 24.5079C18.1091 24.2767 18.5942 24.0245 18.9014 23.7755L18.9238 23.3194C19.0388 20.921 17.6091 19.2457 15.6104 17.3741C14.6521 16.4768 13.5365 15.5091 12.5996 14.4717C11.6477 13.4176 10.7986 12.2088 10.3604 10.7422C8.79275 5.49534 12.0132 0.577093 17.3262 0.0303345L17.334 0.0293579ZM25 24.9473C26.0229 25.092 29.786 25.2976 31 25.4473C30.6245 26.2694 30.2497 26.9324 29.5 27.4473C29.0532 27.4107 23.947 27.5318 23.5 27.5001L25 24.9473ZM21.4414 26.6495C21.3476 26.6633 21.1451 26.6739 20.8652 26.6837C21.1415 26.6741 21.3423 26.6641 21.4375 26.6505C21.4386 26.6501 21.4403 26.6499 21.4414 26.6495ZM19.0488 15.3204C19.064 15.3355 19.0787 15.3511 19.0938 15.3663C19.0788 15.3513 19.0648 15.3353 19.0498 15.3204L18.3359 14.6309L19.0488 15.3204ZM23.1729 11.1329L23.3613 11.1446C23.2947 11.1442 23.2281 11.1393 23.1621 11.1309C23.1657 11.1314 23.1692 11.1324 23.1729 11.1329Z" fill="url(#paint0_linear_289_75)"/>
<defs>
<linearGradient id="paint0_linear_289_75" x1="0" y1="14.5001" x2="31" y2="14.5001" gradientUnits="userSpaceOnUse">
<stop stop-color="#FFB800"/>
<stop offset="1" stop-color="#FF5C00"/>
</linearGradient>
</defs>
</svg>
